HIERARCHY
ROOT hip
{
	OFFSET 0.000000 0.000000 0.000000 
	CHANNELS 6 Xposition Yposition Zposition Xrotation Zrotation Yrotation
	JOINT abdomen
	{
		OFFSET 0.000000 3.402643 0.000000 
		CHANNELS 3 Xrotation Zrotation Yrotation
		JOINT chest
		{
			OFFSET 0.000000 8.438565 -0.680529 
			CHANNELS 3 Xrotation Zrotation Yrotation
			JOINT neck
			{
				OFFSET 0.000000 10.207942 -0.272212 
				CHANNELS 3 Xrotation Zrotation Yrotation
				JOINT head
				{
					OFFSET 0.000000 3.130431 0.000000 
					CHANNELS 3 Xrotation Zrotation Yrotation
					End Site
					{
						OFFSET 0.000000 3.130435 0.000000 
					}
				}
			}
			JOINT lCollar
			{
				OFFSET 3.470700 6.669187 -0.816635 
				CHANNELS 3 Yrotation Zrotation Xrotation
				JOINT lShldr
				{
					OFFSET 3.198488 0.000000 0.000000 
					CHANNELS 3 Zrotation Yrotation Xrotation
					JOINT lForeArm
					{
						OFFSET 10.139888 0.000000 0.000000 
						CHANNELS 3 Yrotation Zrotation Xrotation
						JOINT lHand
						{
							OFFSET 8.370511 0.000000 0.000000 
							CHANNELS 3 Zrotation Yrotation Xrotation
							End Site
							{
								OFFSET 4.083176 0.000000 0.000000 
							}
						}
					}
				}
			}
			JOINT rCollar
			{
				OFFSET -3.470700 6.669187 -0.816635 
				CHANNELS 3 Yrotation Zrotation Xrotation
				JOINT rShldr
				{
					OFFSET -3.198488 0.000000 0.000000 
					CHANNELS 3 Zrotation Yrotation Xrotation
					JOINT rForeArm
					{
						OFFSET -10.139888 0.000000 0.000000 
						CHANNELS 3 Yrotation Zrotation Xrotation
						JOINT rHand
						{
							OFFSET -8.370511 0.000000 0.000000 
							CHANNELS 3 Zrotation Yrotation Xrotation
							End Site
							{
								OFFSET -4.083176 0.000000 0.000000 
							}
						}
					}
				}
			}
		}
	}
	JOINT lThigh
	{
		OFFSET 5.308129 -1.633274 1.361059 
		CHANNELS 3 Xrotation Zrotation Yrotation
		JOINT lShin
		{
			OFFSET -2.041588 -20.007561 0.000000 
			CHANNELS 3 Xrotation Zrotation Yrotation
			JOINT lFoot
			{
				OFFSET 0.000000 -19.190928 -1.224953 
				CHANNELS 3 Xrotation Yrotation Zrotation
				End Site
				{
					OFFSET 0.000000 -2.449906 4.627600 
				}
			}
		}
	}
	JOINT rThigh
	{
		OFFSET -5.308129 -1.633274 1.361059 
		CHANNELS 3 Xrotation Zrotation Yrotation
		JOINT rShin
		{
			OFFSET 2.041588 -20.007561 0.000000 
			CHANNELS 3 Xrotation Zrotation Yrotation
			JOINT rFoot
			{
				OFFSET 0.000000 -19.190928 -1.224953 
				CHANNELS 3 Xrotation Yrotation Zrotation
				End Site
				{
					OFFSET 0.000000 -2.449906 4.627600 
				}
			}
		}
	}
}
MOTION
Frames: 13
Frame Time: 0.016667
16.725826 48.589783 29.019676 -1.255689 3.056459 0.626194 21.296061 0.799403 9.512692 -1.185930 3.982778 1.625317 51.558491 8.067881 2.614341 -46.830914 0.622945 -11.074831 4.617097 -5.196616 8.796780 -34.488861 25.736300 50.818710 -78.160103 -0.668548 -2.773968 7.201186 13.861713 -0.673916 -7.720746 14.010207 17.196228 22.531935 5.720022 30.327198 131.500076 -2.289648 -2.487023 -26.875246 -30.123251 2.590832 -5.816845 8.744242 2.045494 2.459164 -5.780332 -0.522618 7.667167 11.623187 0.555316 -4.177209 -6.489163 -5.755529 22.566900 5.019067 2.161350 -8.814834 3.814080 9.400418 
16.899609 48.684673 29.294250 -1.007229 2.945513 -2.874825 21.202158 1.241143 9.865809 -1.182258 4.226632 1.713692 51.558491 8.067881 2.614341 -48.573284 -0.404260 -9.726870 4.977012 -5.329616 8.922570 -33.011646 26.312212 53.601532 -78.340240 -0.672099 -2.851920 7.428603 14.075892 -0.437999 -7.885827 13.242367 17.333349 21.772045 7.951915 30.860895 133.106140 -2.375731 -2.430339 -26.863115 -29.424223 2.210222 -5.152791 8.781950 4.301602 3.335739 -5.777552 -0.609996 6.916665 12.751884 -0.024084 -4.956880 -6.546515 -3.537166 23.265118 5.115771 2.005482 -7.847797 3.137532 10.545529 
17.073032 48.779011 29.566643 -0.757035 2.843664 -6.374818 21.113705 1.681889 10.219568 -1.178285 4.480237 1.793089 51.558491 8.067881 2.614341 -50.345703 -1.372052 -8.342345 5.327859 -5.462604 9.048136 -31.492031 26.817593 56.408123 -78.511299 -0.675555 -2.928951 7.650142 14.296924 -0.190022 -8.046968 12.473391 17.472666 21.023211 10.180939 31.355394 134.702591 -2.442088 -2.377526 -26.856031 -28.725145 1.839300 -4.471944 8.806445 6.559529 4.202768 -5.746940 -0.705713 6.212956 13.894375 -0.613607 -5.751679 -6.581530 -1.310006 23.981937 5.214535 1.881414 -6.871243 2.447564 11.677970 
17.203209 48.806690 29.576075 -0.633670 2.841058 -9.542660 21.208885 2.037170 10.270307 -1.085234 4.724026 1.881497 51.558491 8.067881 2.614341 -52.634335 -1.201753 -7.062263 5.651080 -5.617421 9.066292 -30.618782 26.847704 58.233837 -78.510246 -0.529516 -2.836064 7.931819 14.716443 0.055000 -8.112965 11.928785 17.458990 20.550606 12.573133 31.732510 136.123596 -2.459516 -2.336913 -26.621502 -28.248930 1.489083 -3.807798 8.931531 10.385041 4.995239 -5.750521 -0.794947 5.303853 13.735547 0.027014 -7.135568 -6.588953 -0.425970 25.388021 4.965899 2.506175 -5.759528 1.819409 12.367393 
17.334795 48.833942 29.585884 -0.503360 2.838951 -12.710911 21.314463 2.392337 10.321757 -1.000852 4.977539 1.970737 51.558491 8.067881 2.614341 -54.919018 -0.991010 -5.792004 5.963759 -5.774591 9.074737 -29.731960 26.850498 60.065338 -78.509933 -0.373720 -2.743451 8.214188 15.135466 0.294253 -8.177168 11.385406 17.439236 20.075644 14.957192 32.084106 137.534851 -2.482806 -2.290261 -26.390989 -27.770565 1.142429 -3.144268 9.028995 14.202711 5.787605 -5.743351 -0.883905 4.407267 13.571243 0.665696 -8.510279 -6.578034 0.486248 26.774403 4.711624 3.112405 -4.615543 1.205375 13.068898 
17.635551 48.810223 29.640383 -0.445678 2.907762 -15.518215 21.686434 2.846245 10.061520 -0.905683 5.055793 1.912376 51.558491 8.067881 2.614341 -57.333080 -0.369863 -4.668124 6.159612 -5.858590 9.112673 -29.002838 26.145973 61.582214 -78.150909 -0.470042 -2.646915 8.996331 15.359283 0.611599 -8.198862 11.094296 17.517878 19.824984 17.080278 32.474739 138.597809 -2.527501 -2.181443 -26.086735 -27.449030 0.702582 -2.490562 9.040777 18.370928 6.699724 -5.717196 -0.973541 3.365278 12.744612 1.700663 -9.442123 -7.010773 0.363277 27.755548 4.701107 2.958580 -3.797392 1.702947 12.765813 
17.933950 48.786472 29.696148 -0.386442 2.966796 -18.325926 22.055950 3.310448 9.801940 -0.809479 5.143779 1.863754 51.558491 8.067881 2.614341 -59.725197 0.292405 -3.554691 6.363629 -5.931153 9.150356 -28.308289 25.412052 63.078381 -77.793251 -0.555780 -2.548787 9.778222 15.579091 0.925414 -8.222746 10.812424 17.598745 19.587488 19.186031 32.862469 139.660309 -2.586949 -2.067117 -25.802605 -27.137371 0.291170 -1.836452 8.998993 22.538752 7.579412 -5.679479 -1.058751 2.353146 11.897471 2.706006 -10.376676 -7.448198 0.228811 28.733021 4.710784 2.799232 -2.958546 2.173919 12.455983 
17.948711 48.758789 29.904531 -0.389094 2.969261 -20.702471 22.623266 3.845117 9.328073 -0.638561 5.300260 1.755906 51.558491 8.067881 2.614341 -60.590656 0.604983 -2.295000 6.633606 -5.900925 9.214534 -27.780113 23.985050 64.579498 -77.444717 -0.597415 -2.589599 10.594963 15.752501 1.149671 -8.130368 11.384902 17.499914 20.071211 19.789139 33.209782 139.569000 -2.568699 -1.989885 -25.602583 -27.420506 0.580497 -1.446174 9.009471 25.653160 8.827962 -5.659832 -1.185730 1.444466 11.768669 3.259335 -10.288484 -8.267467 -4.050961 29.340225 4.789014 2.723044 -2.936212 2.317755 10.461708 
17.964895 48.731243 30.107222 -0.387166 2.974400 -23.069653 23.181007 4.381083 8.844606 -0.467016 5.466475 1.658698 51.558491 8.067881 2.614341 -61.423031 0.937350 -1.025413 6.915691 -5.876987 9.287910 -27.308880 22.552481 66.035774 -77.105484 -0.638681 -2.626785 11.433074 15.912640 1.384954 -8.027633 11.970425 17.395208 20.573814 20.380020 33.573433 139.457733 -2.543699 -1.919277 -25.399179 -27.711267 0.879287 -1.066749 8.996341 28.756220 10.052661 -5.628490 -1.320637 0.598728 11.641924 3.795843 -10.125699 -9.090290 -8.403028 29.959280 4.833605 2.727786 -2.918527 2.414516 8.479178 
18.151100 48.719376 29.630445 -0.571456 2.909971 -25.102711 23.742163 4.861370 8.263015 -0.280524 5.545129 1.442982 51.558491 8.067881 2.614341 -59.938332 0.751947 0.234483 7.065722 -5.764052 9.370837 -27.271572 20.831743 66.921776 -76.656227 -0.716374 -2.700820 12.606842 15.943502 1.700436 -7.799784 13.191133 17.259899 21.650835 19.382013 33.562481 137.948349 -2.496464 -2.123246 -24.590446 -28.695148 1.389104 -2.022436 9.733932 30.178198 13.150999 -5.562688 -1.468560 3.821023 11.318153 3.423068 -9.283463 -10.041992 -14.612580 30.229004 4.813579 2.755733 -4.580528 0.348659 7.548892 
18.337458 48.706829 29.153812 -0.752284 2.842722 -27.125942 24.304264 5.342428 7.690077 -0.104390 5.623719 1.227268 51.558491 8.067881 2.614341 -58.452957 0.527162 1.504022 7.216076 -5.661542 9.444042 -27.272493 19.096756 67.774620 -76.207405 -0.804272 -2.773645 13.788007 15.960730 2.008925 -7.566251 14.420389 17.121061 22.721510 18.372528 33.524254 136.448029 -2.450778 -2.321155 -23.790787 -29.685280 1.899128 -2.959266 10.497561 31.597794 16.264772 -5.485218 -1.614714 7.074995 10.998255 3.063534 -8.347095 -10.899758 -20.835157 30.507278 4.804462 2.776675 -6.288898 -1.705104 6.615615 
18.540178 48.611935 28.696825 -1.004699 2.830681 -28.895573 24.874092 5.814665 7.107950 0.079942 5.702260 1.001837 51.558491 8.067881 2.614341 -55.756527 -0.097549 2.685543 7.414424 -5.645212 9.470111 -27.641754 17.835857 67.333832 -76.029495 -0.809319 -2.779200 14.760182 15.805846 2.041698 -7.403425 15.832138 16.932795 23.894907 16.478947 33.411942 134.581543 -2.374051 -2.337587 -23.340967 -31.072269 2.834520 -4.336191 11.620502 32.691551 20.052578 -5.418052 -2.207852 8.981889 11.297866 2.701038 -7.938502 -11.536947 -24.612839 30.785957 4.794187 2.788397 -8.054035 -4.661700 7.337918 
18.742598 48.516647 28.237318 -1.257255 2.815064 -30.655849 25.425682 6.297181 6.524347 0.263654 5.780724 0.775430 51.558491 8.067881 2.614341 -53.080158 -0.789251 3.828434 7.612745 -5.628696 9.495084 -28.006628 16.583067 66.898811 -75.860596 -0.794612 -2.784580 15.714339 15.643271 2.070835 -7.224641 17.244238 16.726519 25.071161 14.590911 33.270706 132.715378 -2.286857 -2.352302 -22.915739 -32.459644 3.773253 -5.684629 12.766600 33.758034 23.858179 -5.332421 -2.768572 10.867583 11.544636 2.340152 -7.480193 -12.139916 -28.339003 31.035204 4.788973 2.769788 -9.766502 -7.612990 7.989580 
